<?xml version="1.0" encoding="utf-8"?>
<!-- Generator: Adobe Illustrator 16.0.0, SVG Export Plug-In . SVG Version: 6.00 Build 0)  -->
<!DOCTYPE svg PUBLIC "-//W3C//DTD SVG 1.1//EN" "http://www.w3.org/Graphics/SVG/1.1/DTD/svg11.dtd">
<svg version="1.1" id="Layer_1" xmlns="http://www.w3.org/2000/svg" xmlns:xlink="http://www.w3.org/1999/xlink" x="0px" y="0px"
	 width="180px" height="180px" viewBox="0 0 180 180" enable-background="new 0 0 180 180" xml:space="preserve">
<path fill="#EDEDED" d="M180,138.751C180,161.438,161.438,180,138.751,180H41.249C18.562,180,0,161.438,0,138.751V41.249
	C0,18.562,18.562,0,41.249,0h97.499C161.438,0,180,18.562,180,41.249V138.751z"/>
<path d="M50.214,90.791c0,0-22.88-0.83-33.523-17.214c0,0-2.542-4.161-7.337-8.661c0,0-3.233-4.979-1.16-8
	c2.074-3.02,2.84-3.105,3.143-4.906c0.303-1.8,1.797-6.992,22.792-23.79c0,0,4.435-5.094,6.17-6.63c1.738-1.542,8.072-0.7,8.072-0.7
	s5.145,0.775,9.106,4.275c3.964,3.498,2.583,3.686,2.322,10.501c0,0-0.409,2.437-4.524,1.955c0,0-0.914,4.352-3.085,4.243
	c-2.171-0.107-1.886-4.796-1.886-4.796s-1.804-0.354-2.276-0.949c0,0-3.219-0.026-4.093-1.967c0,0-0.202-0.512-0.178-0.986
	c0,0-3.6,2.312-5.503,7.918c-1.907,5.607-3.194,13.229-4.752,16.245c0,0,11.371-7.574,16.682,7.413c0,0,18.551-2.522,23.613,7.592
	c0,0-0.749,1.642,6.915,0.837c0,0,3.435-4.126-3.082-4.537c-6.516-0.409-4.312-6.768-4.312-6.768s-0.268-1.016-1.149-1.675
	c-0.883-0.658,1.782-1.723,3.538-1.753c0,0-2.261-1.648-2.602-1.735c-0.346-0.086,0.492-1.714,0.492-1.714l0.278-0.504l-1.904-1.735
	c0,0-1.16-1.109,1.501-2.566c0,0,2.502-1.954,3.027-3.377c0.525-1.418-0.49-3.96,2.672-7.498c0,0-0.9-3.233,1.059-5
	c0,0,0.024-1.754,0.662-2.345c0,0,0.63-3.34,2.491-3.243c1.865,0.097,18.246,0.753,23.478,4.695c0,0,2.608,0.974,2.752,2.041
	c0,0,2.535,1.145,3.041,2.824c0.507,1.679,0.872,3.85,0.872,3.85s1.758,1.011,2.046,4.467c0.479,5.702-1.047,13.806-2.095,16.888
	c-1.048,3.083-6.82,6.827-6.82,6.827s0.158,4.14,5.062,5.889c3.034,1.083,15.346-5.854,23.249,5.365c0,0,9.657-5.739,18.565,2.494
	c0,0,5.688-26.55,2.496-28.037c0,0-6.286,2.879-7.4,0.842c0,0-6.409,5.39-7.597,2.721c-1.188-2.663,0.365-3.751,0.587-4.283
	l-3.562-3.052c0,0-0.303-1.51,0.211-2.527c0.506-1.02,4.311-6.002,4.311-6.002s-0.134-1.608,8.897-0.493
	c9.032,1.116,5.657,2.222,10.762,4.032s3.733,6.88,5.52,13.599c1.775,6.716,5.856,12.958,4.476,29.635
	c-1.382,16.676-4.24,12.514-19.178,19.151c-13.95,6.19-24.42-4.036-24.42-4.036c-1.02,17.712-20.018,31.408-20.018,31.408
	s-1.441,11.553-1.463,15.758c-0.031,4.809-0.031,5.414-1.512,6.672h-47.09c-0.536-4.166-1.369-1.694,0.543-10.898
	c1.958-9.429,0.248-23.002,0.248-23.002C47.58,108.352,50.214,90.791,50.214,90.791"/>
</svg>
